<mxfile host="65bd71144e">
    <diagram id="R2lEEEUBdFMjLlhIrx00" name="Page-1">
        <mxGraphModel dx="1101" dy="779" grid="1" gridSize="10" guides="1" tooltips="1" connect="1" arrows="1" fold="1" page="1" pageScale="1" pageWidth="850" pageHeight="1100" math="0" shadow="0" extFonts="Permanent Marker^https://fonts.googleapis.com/css?family=Permanent+Marker">
            <root>
                <mxCell id="0"/>
                <mxCell id="1" parent="0"/>
                <mxCell id="2Nbfj4_2pB3e8aUlFarP-18" style="edgeStyle=orthogonalEdgeStyle;rounded=0;orthogonalLoop=1;jettySize=auto;html=1;entryX=0.5;entryY=0;entryDx=0;entryDy=0;endArrow=ERone;endFill=0;startArrow=ERzeroToMany;startFill=0;" parent="1" source="ctsZYJ_Ft5Dsu8GefjpD-1" target="2Nbfj4_2pB3e8aUlFarP-1" edge="1">
                    <mxGeometry relative="1" as="geometry"/>
                </mxCell>
                <mxCell id="ctsZYJ_Ft5Dsu8GefjpD-1" value="Comments" style="shape=table;startSize=30;container=1;collapsible=1;childLayout=tableLayout;fixedRows=1;rowLines=0;fontStyle=1;align=center;resizeLast=1;" parent="1" vertex="1">
                    <mxGeometry x="80" y="200" width="400" height="190" as="geometry"/>
                </mxCell>
                <mxCell id="ctsZYJ_Ft5Dsu8GefjpD-2" value="" style="shape=partialRectangle;collapsible=0;dropTarget=0;pointerEvents=0;fillColor=none;points=[[0,0.5],[1,0.5]];portConstraint=eastwest;top=0;left=0;right=0;bottom=1;" parent="ctsZYJ_Ft5Dsu8GefjpD-1" vertex="1">
                    <mxGeometry y="30" width="400" height="30" as="geometry"/>
                </mxCell>
                <mxCell id="ctsZYJ_Ft5Dsu8GefjpD-3" value="PK" style="shape=partialRectangle;overflow=hidden;connectable=0;fillColor=none;top=0;left=0;bottom=0;right=0;fontStyle=1;" parent="ctsZYJ_Ft5Dsu8GefjpD-2" vertex="1">
                    <mxGeometry width="30" height="30" as="geometry">
                        <mxRectangle width="30" height="30" as="alternateBounds"/>
                    </mxGeometry>
                </mxCell>
                <mxCell id="ctsZYJ_Ft5Dsu8GefjpD-4" value="comment_id int NOT NULL " style="shape=partialRectangle;overflow=hidden;connectable=0;fillColor=none;top=0;left=0;bottom=0;right=0;align=left;spacingLeft=6;fontStyle=5;" parent="ctsZYJ_Ft5Dsu8GefjpD-2" vertex="1">
                    <mxGeometry x="30" width="370" height="30" as="geometry">
                        <mxRectangle width="370" height="30" as="alternateBounds"/>
                    </mxGeometry>
                </mxCell>
                <mxCell id="ctsZYJ_Ft5Dsu8GefjpD-5" value="" style="shape=partialRectangle;collapsible=0;dropTarget=0;pointerEvents=0;fillColor=none;points=[[0,0.5],[1,0.5]];portConstraint=eastwest;top=0;left=0;right=0;bottom=0;" parent="ctsZYJ_Ft5Dsu8GefjpD-1" vertex="1">
                    <mxGeometry y="60" width="400" height="30" as="geometry"/>
                </mxCell>
                <mxCell id="ctsZYJ_Ft5Dsu8GefjpD-6" value="" style="shape=partialRectangle;overflow=hidden;connectable=0;fillColor=none;top=0;left=0;bottom=0;right=0;" parent="ctsZYJ_Ft5Dsu8GefjpD-5" vertex="1">
                    <mxGeometry width="30" height="30" as="geometry">
                        <mxRectangle width="30" height="30" as="alternateBounds"/>
                    </mxGeometry>
                </mxCell>
                <mxCell id="ctsZYJ_Ft5Dsu8GefjpD-7" value="handle_name varchar(50)" style="shape=partialRectangle;overflow=hidden;connectable=0;fillColor=none;top=0;left=0;bottom=0;right=0;align=left;spacingLeft=6;" parent="ctsZYJ_Ft5Dsu8GefjpD-5" vertex="1">
                    <mxGeometry x="30" width="370" height="30" as="geometry">
                        <mxRectangle width="370" height="30" as="alternateBounds"/>
                    </mxGeometry>
                </mxCell>
                <mxCell id="ctsZYJ_Ft5Dsu8GefjpD-8" value="" style="shape=partialRectangle;collapsible=0;dropTarget=0;pointerEvents=0;fillColor=none;points=[[0,0.5],[1,0.5]];portConstraint=eastwest;top=0;left=0;right=0;bottom=0;" parent="ctsZYJ_Ft5Dsu8GefjpD-1" vertex="1">
                    <mxGeometry y="90" width="400" height="30" as="geometry"/>
                </mxCell>
                <mxCell id="ctsZYJ_Ft5Dsu8GefjpD-9" value="" style="shape=partialRectangle;overflow=hidden;connectable=0;fillColor=none;top=0;left=0;bottom=0;right=0;" parent="ctsZYJ_Ft5Dsu8GefjpD-8" vertex="1">
                    <mxGeometry width="30" height="30" as="geometry">
                        <mxRectangle width="30" height="30" as="alternateBounds"/>
                    </mxGeometry>
                </mxCell>
                <mxCell id="ctsZYJ_Ft5Dsu8GefjpD-10" value="comment_order_number integer NOT NULL AUTO INCREMENT" style="shape=partialRectangle;overflow=hidden;connectable=0;fillColor=none;top=0;left=0;bottom=0;right=0;align=left;spacingLeft=6;" parent="ctsZYJ_Ft5Dsu8GefjpD-8" vertex="1">
                    <mxGeometry x="30" width="370" height="30" as="geometry">
                        <mxRectangle width="370" height="30" as="alternateBounds"/>
                    </mxGeometry>
                </mxCell>
                <mxCell id="ctsZYJ_Ft5Dsu8GefjpD-11" value="" style="shape=partialRectangle;collapsible=0;dropTarget=0;pointerEvents=0;fillColor=none;points=[[0,0.5],[1,0.5]];portConstraint=eastwest;top=0;left=0;right=0;bottom=0;" parent="ctsZYJ_Ft5Dsu8GefjpD-1" vertex="1">
                    <mxGeometry y="120" width="400" height="30" as="geometry"/>
                </mxCell>
                <mxCell id="ctsZYJ_Ft5Dsu8GefjpD-12" value="" style="shape=partialRectangle;overflow=hidden;connectable=0;fillColor=none;top=0;left=0;bottom=0;right=0;" parent="ctsZYJ_Ft5Dsu8GefjpD-11" vertex="1">
                    <mxGeometry width="30" height="30" as="geometry">
                        <mxRectangle width="30" height="30" as="alternateBounds"/>
                    </mxGeometry>
                </mxCell>
                <mxCell id="ctsZYJ_Ft5Dsu8GefjpD-13" value="created_at timestamp with time zone NOT NULL" style="shape=partialRectangle;overflow=hidden;connectable=0;fillColor=none;top=0;left=0;bottom=0;right=0;align=left;spacingLeft=6;" parent="ctsZYJ_Ft5Dsu8GefjpD-11" vertex="1">
                    <mxGeometry x="30" width="370" height="30" as="geometry">
                        <mxRectangle width="370" height="30" as="alternateBounds"/>
                    </mxGeometry>
                </mxCell>
                <mxCell id="2" value="" style="shape=partialRectangle;collapsible=0;dropTarget=0;pointerEvents=0;fillColor=none;points=[[0,0.5],[1,0.5]];portConstraint=eastwest;top=0;left=0;right=0;bottom=0;" parent="ctsZYJ_Ft5Dsu8GefjpD-1" vertex="1">
                    <mxGeometry y="150" width="400" height="30" as="geometry"/>
                </mxCell>
                <mxCell id="3" value="" style="shape=partialRectangle;overflow=hidden;connectable=0;fillColor=none;top=0;left=0;bottom=0;right=0;" parent="2" vertex="1">
                    <mxGeometry width="30" height="30" as="geometry">
                        <mxRectangle width="30" height="30" as="alternateBounds"/>
                    </mxGeometry>
                </mxCell>
                <mxCell id="4" value="updated_at timestamp with time zone NOT NULL" style="shape=partialRectangle;overflow=hidden;connectable=0;fillColor=none;top=0;left=0;bottom=0;right=0;align=left;spacingLeft=6;" parent="2" vertex="1">
                    <mxGeometry x="30" width="370" height="30" as="geometry">
                        <mxRectangle width="370" height="30" as="alternateBounds"/>
                    </mxGeometry>
                </mxCell>
                <mxCell id="2Nbfj4_2pB3e8aUlFarP-1" value="Boards" style="shape=table;startSize=30;container=1;collapsible=1;childLayout=tableLayout;fixedRows=1;rowLines=0;fontStyle=1;align=center;resizeLast=1;" parent="1" vertex="1">
                    <mxGeometry x="120" y="430" width="320" height="160" as="geometry"/>
                </mxCell>
                <mxCell id="2Nbfj4_2pB3e8aUlFarP-2" value="" style="shape=partialRectangle;collapsible=0;dropTarget=0;pointerEvents=0;fillColor=none;points=[[0,0.5],[1,0.5]];portConstraint=eastwest;top=0;left=0;right=0;bottom=1;" parent="2Nbfj4_2pB3e8aUlFarP-1" vertex="1">
                    <mxGeometry y="30" width="320" height="30" as="geometry"/>
                </mxCell>
                <mxCell id="2Nbfj4_2pB3e8aUlFarP-3" value="PK" style="shape=partialRectangle;overflow=hidden;connectable=0;fillColor=none;top=0;left=0;bottom=0;right=0;fontStyle=1;" parent="2Nbfj4_2pB3e8aUlFarP-2" vertex="1">
                    <mxGeometry width="30" height="30" as="geometry">
                        <mxRectangle width="30" height="30" as="alternateBounds"/>
                    </mxGeometry>
                </mxCell>
                <mxCell id="2Nbfj4_2pB3e8aUlFarP-4" value="board_id int NOT NULL " style="shape=partialRectangle;overflow=hidden;connectable=0;fillColor=none;top=0;left=0;bottom=0;right=0;align=left;spacingLeft=6;fontStyle=5;" parent="2Nbfj4_2pB3e8aUlFarP-2" vertex="1">
                    <mxGeometry x="30" width="290" height="30" as="geometry">
                        <mxRectangle width="290" height="30" as="alternateBounds"/>
                    </mxGeometry>
                </mxCell>
                <mxCell id="2Nbfj4_2pB3e8aUlFarP-5" value="" style="shape=partialRectangle;collapsible=0;dropTarget=0;pointerEvents=0;fillColor=none;points=[[0,0.5],[1,0.5]];portConstraint=eastwest;top=0;left=0;right=0;bottom=0;" parent="2Nbfj4_2pB3e8aUlFarP-1" vertex="1">
                    <mxGeometry y="60" width="320" height="30" as="geometry"/>
                </mxCell>
                <mxCell id="2Nbfj4_2pB3e8aUlFarP-6" value="" style="shape=partialRectangle;overflow=hidden;connectable=0;fillColor=none;top=0;left=0;bottom=0;right=0;" parent="2Nbfj4_2pB3e8aUlFarP-5" vertex="1">
                    <mxGeometry width="30" height="30" as="geometry">
                        <mxRectangle width="30" height="30" as="alternateBounds"/>
                    </mxGeometry>
                </mxCell>
                <mxCell id="2Nbfj4_2pB3e8aUlFarP-7" value="board_name varchar(50)" style="shape=partialRectangle;overflow=hidden;connectable=0;fillColor=none;top=0;left=0;bottom=0;right=0;align=left;spacingLeft=6;" parent="2Nbfj4_2pB3e8aUlFarP-5" vertex="1">
                    <mxGeometry x="30" width="290" height="30" as="geometry">
                        <mxRectangle width="290" height="30" as="alternateBounds"/>
                    </mxGeometry>
                </mxCell>
                <mxCell id="2Nbfj4_2pB3e8aUlFarP-11" value="" style="shape=partialRectangle;collapsible=0;dropTarget=0;pointerEvents=0;fillColor=none;points=[[0,0.5],[1,0.5]];portConstraint=eastwest;top=0;left=0;right=0;bottom=0;" parent="2Nbfj4_2pB3e8aUlFarP-1" vertex="1">
                    <mxGeometry y="90" width="320" height="30" as="geometry"/>
                </mxCell>
                <mxCell id="2Nbfj4_2pB3e8aUlFarP-12" value="" style="shape=partialRectangle;overflow=hidden;connectable=0;fillColor=none;top=0;left=0;bottom=0;right=0;" parent="2Nbfj4_2pB3e8aUlFarP-11" vertex="1">
                    <mxGeometry width="30" height="30" as="geometry">
                        <mxRectangle width="30" height="30" as="alternateBounds"/>
                    </mxGeometry>
                </mxCell>
                <mxCell id="2Nbfj4_2pB3e8aUlFarP-13" value="created_at timestamp with time zone NOT NULL" style="shape=partialRectangle;overflow=hidden;connectable=0;fillColor=none;top=0;left=0;bottom=0;right=0;align=left;spacingLeft=6;" parent="2Nbfj4_2pB3e8aUlFarP-11" vertex="1">
                    <mxGeometry x="30" width="290" height="30" as="geometry">
                        <mxRectangle width="290" height="30" as="alternateBounds"/>
                    </mxGeometry>
                </mxCell>
                <mxCell id="2Nbfj4_2pB3e8aUlFarP-14" value="" style="shape=partialRectangle;collapsible=0;dropTarget=0;pointerEvents=0;fillColor=none;points=[[0,0.5],[1,0.5]];portConstraint=eastwest;top=0;left=0;right=0;bottom=0;" parent="2Nbfj4_2pB3e8aUlFarP-1" vertex="1">
                    <mxGeometry y="120" width="320" height="30" as="geometry"/>
                </mxCell>
                <mxCell id="2Nbfj4_2pB3e8aUlFarP-15" value="" style="shape=partialRectangle;overflow=hidden;connectable=0;fillColor=none;top=0;left=0;bottom=0;right=0;" parent="2Nbfj4_2pB3e8aUlFarP-14" vertex="1">
                    <mxGeometry width="30" height="30" as="geometry">
                        <mxRectangle width="30" height="30" as="alternateBounds"/>
                    </mxGeometry>
                </mxCell>
                <mxCell id="2Nbfj4_2pB3e8aUlFarP-16" value="updated_at timestamp with time zone NOT NULL" style="shape=partialRectangle;overflow=hidden;connectable=0;fillColor=none;top=0;left=0;bottom=0;right=0;align=left;spacingLeft=6;" parent="2Nbfj4_2pB3e8aUlFarP-14" vertex="1">
                    <mxGeometry x="30" width="290" height="30" as="geometry">
                        <mxRectangle width="290" height="30" as="alternateBounds"/>
                    </mxGeometry>
                </mxCell>
            </root>
        </mxGraphModel>
    </diagram>
</mxfile>